<svg width="23" height="23" viewBox="0 0 23 23" fill="none" xmlns="http://www.w3.org/2000/svg">
<path d="M19.5186 10.9564L11.0328 3.5915C10.9677 3.53535 10.8846 3.50391 10.797 3.50391H8.80918C8.64297 3.50391 8.5666 3.71055 8.69238 3.81836L16.5582 10.6465H3.41406C3.31523 10.6465 3.23438 10.7273 3.23438 10.8262V12.1738C3.23438 12.2727 3.31523 12.3535 3.41406 12.3535H16.556L8.69014 19.1816C8.56436 19.2917 8.64072 19.4961 8.80693 19.4961H10.8621C10.9048 19.4961 10.9475 19.4804 10.9789 19.4512L19.5186 12.0436C19.5963 11.9759 19.6587 11.8924 19.7014 11.7987C19.7441 11.7049 19.7662 11.603 19.7662 11.5C19.7662 11.397 19.7441 11.2951 19.7014 11.2013C19.6587 11.1076 19.5963 11.0241 19.5186 10.9564Z" fill="white"/>
</svg>
