<svg width="17" height="17" viewBox="0 0 17 17" fill="none" xmlns="http://www.w3.org/2000/svg">
<g clip-path="url(#clip0_23_457)">
<path d="M12.0281 0.690797C12.8105 0.728706 13.3514 0.84988 13.8511 1.05432C14.325 1.24103 14.754 1.53549 15.1076 1.91675C15.4693 2.2894 15.7487 2.7415 15.9259 3.24087C16.1199 3.76821 16.2349 4.33752 16.2709 5.16205C16.3152 6.18424 16.3203 6.54438 16.3203 8.76207C16.3203 10.9798 16.3152 11.3399 16.2709 12.3621C16.2349 13.1866 16.1199 13.7566 15.9259 14.2839C15.7487 14.7831 15.4693 15.2349 15.1076 15.6074C14.754 15.9887 14.325 16.2831 13.8511 16.4698C13.3507 16.6743 12.8105 16.7954 12.0281 16.8333C11.0582 16.88 10.7171 16.8855 8.61212 16.8855C6.50714 16.8855 6.16541 16.88 5.19611 16.8333C4.41373 16.7954 3.87287 16.6743 3.37248 16.4698C2.89885 16.283 2.47009 15.9886 2.11669 15.6074C1.75491 15.2347 1.4755 14.7826 1.29833 14.2833C1.10434 13.7559 0.989363 13.1866 0.953392 12.3621C0.909069 11.3412 0.903931 10.9811 0.903931 8.76207C0.903931 6.5437 0.909069 6.18289 0.953392 5.16205C0.989363 4.33752 1.10434 3.76753 1.29833 3.24087C1.4755 2.7415 1.75491 2.2894 2.11669 1.91675C2.47011 1.53557 2.89886 1.24112 3.37248 1.05432C3.87351 0.84988 4.41373 0.728706 5.19611 0.690797C6.16477 0.644087 6.5065 0.638672 8.61212 0.638672C10.7171 0.638672 11.0595 0.644087 12.0281 0.690797ZM8.61212 2.4441C6.53091 2.4441 6.2123 2.44884 5.27383 2.49419C4.67837 2.52262 4.32123 2.6025 3.99299 2.73722C3.71357 2.8523 3.53564 2.97415 3.32751 3.1928C3.11939 3.41213 3.00377 3.59965 2.89521 3.89412C2.76803 4.23937 2.69159 4.61643 2.66461 5.24396C2.62157 6.23298 2.61708 6.56875 2.61708 8.76207C2.61708 10.9554 2.62157 11.2912 2.66461 12.2802C2.69159 12.9077 2.76739 13.2841 2.89521 13.6293C3.00441 13.9245 3.12004 14.112 3.32751 14.3313C3.53564 14.5507 3.71357 14.6725 3.99299 14.7869C4.32059 14.921 4.67837 15.0015 5.27383 15.0299C6.21295 15.0753 6.53155 15.08 8.61212 15.08C10.6933 15.08 11.0113 15.0753 11.9504 15.0299C12.5459 15.0015 12.903 14.9216 13.2313 14.7869C13.5107 14.6718 13.6886 14.55 13.8967 14.3313C14.1048 14.112 14.2205 13.9245 14.329 13.63C14.4562 13.2848 14.5327 12.9077 14.5596 12.2802C14.6027 11.2905 14.6072 10.9547 14.6072 8.76207C14.6072 6.56943 14.6027 6.23366 14.5596 5.24396C14.5327 4.61643 14.4569 4.24004 14.329 3.8948C14.2382 3.62881 14.0902 3.38856 13.8967 3.1928C13.711 2.98885 13.483 2.83292 13.2306 2.73722C12.903 2.60318 12.5452 2.52262 11.9498 2.49419C11.0113 2.44884 10.6927 2.4441 8.61148 2.4441H8.61212ZM8.61212 12.974C7.55213 12.974 6.53556 12.5303 5.78603 11.7404C5.0365 10.9505 4.61542 9.87915 4.61542 8.76207C4.61542 7.64498 5.0365 6.57365 5.78603 5.78375C6.53556 4.99385 7.55213 4.55009 8.61212 4.55009C9.67211 4.55009 10.6887 4.99385 11.4382 5.78375C12.1877 6.57365 12.6088 7.64498 12.6088 8.76207C12.6088 9.87915 12.1877 10.9505 11.4382 11.7404C10.6887 12.5303 9.67211 12.974 8.61212 12.974ZM8.61212 11.1693C9.21793 11.1693 9.79892 10.9157 10.2273 10.4642C10.6557 10.0128 10.8963 9.4005 10.8963 8.76207C10.8963 8.12363 10.6557 7.51134 10.2273 7.0599C9.79892 6.60845 9.21793 6.35483 8.61212 6.35483C8.00632 6.35483 7.42532 6.60845 6.99695 7.0599C6.56858 7.51134 6.32793 8.12363 6.32793 8.76207C6.32793 9.4005 6.56858 10.0128 6.99695 10.4642C7.42532 10.9157 8.00632 11.1693 8.61212 11.1693ZM12.6088 5.45246C12.3816 5.45246 12.1638 5.35735 12.0031 5.18806C11.8425 5.01877 11.7522 4.78916 11.7522 4.54975C11.7522 4.31033 11.8425 4.08073 12.0031 3.91143C12.1638 3.74214 12.3816 3.64704 12.6088 3.64704C12.836 3.64704 13.0539 3.74214 13.2145 3.91143C13.3751 4.08073 13.4654 4.31033 13.4654 4.54975C13.4654 4.78916 13.3751 5.01877 13.2145 5.18806C13.0539 5.35735 12.836 5.45246 12.6088 5.45246Z" fill="white"/>
</g>
<defs>
<clipPath id="clip0_23_457">
<rect width="15.4164" height="16.2468" fill="white" transform="translate(0.903931 0.638672)"/>
</clipPath>
</defs>
</svg>
