<svg width="22" height="19" viewBox="0 0 22 19" fill="none" xmlns="http://www.w3.org/2000/svg">
<path d="M19.0734 4.72992C19.0825 4.93578 19.086 5.14418 19.086 5.35003C19.086 11.691 14.7524 19.0002 6.82836 19.0002C4.39396 19.0002 2.13075 18.206 0.223633 16.8438C1.35167 16.9957 2.49553 16.8986 3.58984 16.558C4.68415 16.2174 5.70744 15.6401 6.60124 14.8589C5.70237 14.84 4.83128 14.5088 4.10975 13.9117C3.38822 13.3145 2.85233 12.4812 2.577 11.5283C3.22305 11.6629 3.88795 11.6346 4.52293 11.4457C3.54781 11.2256 2.67105 10.6368 2.04121 9.77925C1.41138 8.92167 1.06722 7.84801 1.06706 6.74022V6.68049C1.66532 7.05104 2.33443 7.25711 3.01869 7.28155C2.1055 6.60372 1.45907 5.56341 1.21134 4.37297C0.963605 3.18253 1.13325 1.9317 1.68564 0.875785C2.76736 2.35804 4.11702 3.57037 5.64697 4.43403C7.17692 5.29769 8.85293 5.79335 10.5661 5.88882C10.492 5.52999 10.4549 5.16292 10.4554 4.79472C10.4554 4.165 10.5668 3.54144 10.7833 2.95967C10.9998 2.37789 11.3171 1.84929 11.7171 1.40407C12.1171 0.958845 12.5919 0.605714 13.1145 0.364843C13.637 0.123973 14.1971 8.36086e-05 14.7627 0.000250512C15.3521 -0.000819774 15.9355 0.132966 16.4766 0.393308C17.0177 0.65365 17.5049 1.035 17.9081 1.51369C18.8727 1.3011 19.7978 0.907494 20.6438 0.349702C20.3221 1.46058 19.6488 2.40349 18.7493 3.00299C19.6033 2.89027 20.4373 2.63585 21.2236 2.24818C20.646 3.21195 19.9177 4.05251 19.0734 4.72992Z" fill="white"/>
</svg>
